<svg width="554" height="205" viewBox="0 0 554 205" fill="none" xmlns="http://www.w3.org/2000/svg">
<g filter="url(#filter0_d_0_1)">
<path d="M539.158 94C539.158 137.718 503.718 173.158 460 173.158C416.282 173.158 380.842 137.718 380.842 94C380.842 50.2823 416.282 14.8421 460 14.8421C503.718 14.8421 539.158 50.2823 539.158 94Z" fill="white"/>
</g>
<path d="M535.789 94C535.789 135.857 501.857 169.789 460 169.789C418.143 169.789 384.211 135.857 384.211 94C384.211 52.1426 418.143 18.2105 460 18.2105C501.857 18.2105 535.789 52.1426 535.789 94Z" fill="#6750A4"/>
<path d="M531.263 147C531.263 160.952 519.952 172.263 506 172.263C492.048 172.263 480.737 160.952 480.737 147C480.737 133.048 492.048 121.737 506 121.737C519.952 121.737 531.263 133.048 531.263 147Z" fill="white"/>
<path d="M6.01562 98.3672C6.01562 94.901 6.43099 91.7214 7.26172 88.8281C8.12109 85.9062 9.35286 83.3997 10.957 81.3086C12.5612 79.2174 14.5091 77.5846 16.8008 76.4102C19.0924 75.2357 21.6849 74.6484 24.5781 74.6484C26.4401 74.6484 28.1445 74.8633 29.6914 75.293C31.2669 75.7227 32.6849 76.3529 33.9453 77.1836C34.6328 77.6133 35.2773 78.1146 35.8789 78.6875C36.5091 79.2604 37.0964 79.8906 37.6406 80.5781L38.0273 75.5078H45.2461V121.012C45.2461 124.077 44.7591 126.798 43.7852 129.176C42.8398 131.553 41.5078 133.573 39.7891 135.234C38.0417 136.896 35.9648 138.156 33.5586 139.016C31.1523 139.875 28.4883 140.305 25.5664 140.305C24.3633 140.305 22.9883 140.161 21.4414 139.875C19.8945 139.617 18.3333 139.173 16.7578 138.543C15.1536 137.941 13.6068 137.125 12.1172 136.094C10.6562 135.062 9.39583 133.788 8.33594 132.27L12.4609 127.5C13.4349 128.674 14.4375 129.663 15.4688 130.465C16.5 131.296 17.5456 131.954 18.6055 132.441C19.6654 132.928 20.7253 133.272 21.7852 133.473C22.8451 133.702 23.9049 133.816 24.9648 133.816C26.8555 133.816 28.5599 133.544 30.0781 133C31.5964 132.456 32.8997 131.654 33.9883 130.594C35.0482 129.562 35.8646 128.273 36.4375 126.727C37.0104 125.18 37.2969 123.404 37.2969 121.398V117.402C36.6953 118.09 36.0508 118.72 35.3633 119.293C34.7044 119.866 33.9883 120.367 33.2148 120.797C32.0117 121.456 30.6797 121.957 29.2188 122.301C27.7578 122.673 26.1823 122.859 24.4922 122.859C21.6562 122.859 19.0924 122.258 16.8008 121.055C14.5091 119.852 12.5755 118.19 11 116.07C9.39583 113.951 8.16406 111.458 7.30469 108.594C6.44531 105.701 6.01562 102.592 6.01562 99.2695V98.3672ZM13.9648 99.2695C13.9648 101.533 14.194 103.681 14.6523 105.715C15.1393 107.749 15.8984 109.539 16.9297 111.086C17.9323 112.633 19.2214 113.865 20.7969 114.781C22.3724 115.669 24.263 116.113 26.4688 116.113C27.8438 116.113 29.0755 115.956 30.1641 115.641C31.2812 115.297 32.2839 114.824 33.1719 114.223C34.0312 113.621 34.8047 112.905 35.4922 112.074C36.1797 111.243 36.7812 110.327 37.2969 109.324V88.0117C36.7812 87.0378 36.1797 86.1497 35.4922 85.3477C34.8047 84.5456 34.0169 83.8438 33.1289 83.2422C32.2409 82.6693 31.2526 82.2253 30.1641 81.9102C29.0755 81.5664 27.8724 81.3945 26.5547 81.3945C24.3203 81.3945 22.401 81.8529 20.7969 82.7695C19.2214 83.6862 17.9323 84.918 16.9297 86.4648C15.8984 88.0404 15.1393 89.8594 14.6523 91.9219C14.194 93.9557 13.9648 96.1042 13.9648 98.3672V99.2695ZM80.8672 122.859C77.6016 122.859 74.5938 122.301 71.8438 121.184C69.1224 120.066 66.7878 118.505 64.8398 116.5C62.8919 114.495 61.3737 112.117 60.2852 109.367C59.1966 106.617 58.6523 103.624 58.6523 100.387V98.582C58.6523 94.8294 59.2539 91.4779 60.457 88.5273C61.6602 85.5482 63.2643 83.0273 65.2695 80.9648C67.2461 78.931 69.4948 77.3698 72.0156 76.2812C74.5651 75.1927 77.1719 74.6484 79.8359 74.6484C83.1875 74.6484 86.1094 75.2357 88.6016 76.4102C91.1224 77.556 93.2135 79.1458 94.875 81.1797C96.5365 83.2422 97.7682 85.6628 98.5703 88.4414C99.401 91.2201 99.8164 94.2279 99.8164 97.4648V101.031H66.6016V101.332C66.8021 103.595 67.2461 105.586 67.9336 107.305C68.6497 109.023 69.6237 110.542 70.8555 111.859C72.1159 113.263 73.6341 114.366 75.4102 115.168C77.1862 115.97 79.1484 116.371 81.2969 116.371C84.1328 116.371 86.6536 115.798 88.8594 114.652C91.0651 113.507 92.8984 111.988 94.3594 110.098L99.2148 113.879C97.668 116.228 95.3477 118.319 92.2539 120.152C89.1888 121.957 85.3932 122.859 80.8672 122.859ZM79.8359 81.1797C78.2318 81.1797 76.7135 81.4805 75.2812 82.082C73.849 82.6549 72.5599 83.5 71.4141 84.6172C70.2682 85.763 69.2943 87.1667 68.4922 88.8281C67.7188 90.4609 67.1745 92.3516 66.8594 94.5H91.8672V94.1133C91.8672 92.681 91.5951 91.1484 91.0508 89.5156C90.5065 87.8542 89.7474 86.4219 88.7734 85.2188C87.7995 84.0156 86.5677 83.0417 85.0781 82.2969C83.6172 81.5521 81.8698 81.1797 79.8359 81.1797ZM110.945 98.3242C110.945 94.9727 111.432 91.8646 112.406 89C113.38 86.1068 114.784 83.6003 116.617 81.4805C118.422 79.3607 120.628 77.6992 123.234 76.4961C125.841 75.2643 128.777 74.6484 132.043 74.6484C135.337 74.6484 138.288 75.2643 140.895 76.4961C143.53 77.6992 145.764 79.3607 147.598 81.4805C149.402 83.6003 150.792 86.1068 151.766 89C152.74 91.8646 153.227 94.9727 153.227 98.3242V99.2695C153.227 102.621 152.74 105.729 151.766 108.594C150.792 111.458 149.402 113.951 147.598 116.07C145.764 118.19 143.544 119.852 140.938 121.055C138.331 122.258 135.395 122.859 132.129 122.859C128.835 122.859 125.87 122.258 123.234 121.055C120.628 119.852 118.422 118.19 116.617 116.07C114.784 113.951 113.38 111.458 112.406 108.594C111.432 105.729 110.945 102.621 110.945 99.2695V98.3242ZM118.895 99.2695C118.895 101.561 119.167 103.753 119.711 105.844C120.255 107.906 121.086 109.725 122.203 111.301C123.292 112.876 124.667 114.122 126.328 115.039C127.99 115.956 129.923 116.414 132.129 116.414C134.306 116.414 136.211 115.956 137.844 115.039C139.505 114.122 140.895 112.876 142.012 111.301C143.1 109.725 143.917 107.906 144.461 105.844C145.005 103.753 145.277 101.561 145.277 99.2695V98.3242C145.277 96.0612 144.991 93.8984 144.418 91.8359C143.874 89.7448 143.057 87.9115 141.969 86.3359C140.852 84.7604 139.462 83.5143 137.801 82.5977C136.168 81.6523 134.249 81.1797 132.043 81.1797C129.837 81.1797 127.918 81.6523 126.285 82.5977C124.652 83.5143 123.292 84.7604 122.203 86.3359C121.086 87.9115 120.255 89.7448 119.711 91.8359C119.167 93.8984 118.895 96.0612 118.895 98.3242V99.2695ZM164.527 98.3672C164.527 94.901 164.957 91.7214 165.816 88.8281C166.704 85.9062 167.965 83.3997 169.598 81.3086C171.202 79.2174 173.15 77.5846 175.441 76.4102C177.733 75.2357 180.297 74.6484 183.133 74.6484C185.911 74.6484 188.332 75.1211 190.395 76.0664C192.486 76.9831 194.29 78.3294 195.809 80.1055V56H203.758V122H196.453L196.109 117.102C194.562 118.992 192.715 120.424 190.566 121.398C188.418 122.372 185.911 122.859 183.047 122.859C180.24 122.859 177.69 122.258 175.398 121.055C173.135 119.852 171.202 118.19 169.598 116.07C167.993 113.951 166.747 111.458 165.859 108.594C164.971 105.701 164.527 102.592 164.527 99.2695V98.3672ZM172.477 99.2695C172.477 101.533 172.72 103.681 173.207 105.715C173.694 107.749 174.453 109.539 175.484 111.086C176.487 112.633 177.776 113.865 179.352 114.781C180.927 115.669 182.818 116.113 185.023 116.113C187.688 116.113 189.893 115.512 191.641 114.309C193.388 113.105 194.777 111.487 195.809 109.453V87.8828C194.777 85.9922 193.388 84.4453 191.641 83.2422C189.893 82.0104 187.716 81.3945 185.109 81.3945C182.875 81.3945 180.956 81.8529 179.352 82.7695C177.776 83.6862 176.487 84.918 175.484 86.4648C174.453 88.0404 173.694 89.8594 173.207 91.9219C172.72 93.9557 172.477 96.1042 172.477 98.3672V99.2695ZM239.422 122.859C236.156 122.859 233.148 122.301 230.398 121.184C227.677 120.066 225.342 118.505 223.395 116.5C221.447 114.495 219.928 112.117 218.84 109.367C217.751 106.617 217.207 103.624 217.207 100.387V98.582C217.207 94.8294 217.809 91.4779 219.012 88.5273C220.215 85.5482 221.819 83.0273 223.824 80.9648C225.801 78.931 228.049 77.3698 230.57 76.2812C233.12 75.1927 235.727 74.6484 238.391 74.6484C241.742 74.6484 244.664 75.2357 247.156 76.4102C249.677 77.556 251.768 79.1458 253.43 81.1797C255.091 83.2422 256.323 85.6628 257.125 88.4414C257.956 91.2201 258.371 94.2279 258.371 97.4648V101.031H225.156V101.332C225.357 103.595 225.801 105.586 226.488 107.305C227.204 109.023 228.178 110.542 229.41 111.859C230.671 113.263 232.189 114.366 233.965 115.168C235.741 115.97 237.703 116.371 239.852 116.371C242.688 116.371 245.208 115.798 247.414 114.652C249.62 113.507 251.453 111.988 252.914 110.098L257.77 113.879C256.223 116.228 253.902 118.319 250.809 120.152C247.743 121.957 243.948 122.859 239.422 122.859ZM238.391 81.1797C236.786 81.1797 235.268 81.4805 233.836 82.082C232.404 82.6549 231.115 83.5 229.969 84.6172C228.823 85.763 227.849 87.1667 227.047 88.8281C226.273 90.4609 225.729 92.3516 225.414 94.5H250.422V94.1133C250.422 92.681 250.15 91.1484 249.605 89.5156C249.061 87.8542 248.302 86.4219 247.328 85.2188C246.354 84.0156 245.122 83.0417 243.633 82.2969C242.172 81.5521 240.424 81.1797 238.391 81.1797ZM302.629 109.668C302.629 108.723 302.443 107.878 302.07 107.133C301.698 106.359 301.068 105.658 300.18 105.027C299.292 104.397 298.117 103.824 296.656 103.309C295.195 102.764 293.376 102.277 291.199 101.848C288.535 101.303 286.1 100.645 283.895 99.8711C281.717 99.0977 279.855 98.1667 278.309 97.0781C276.733 96.0182 275.516 94.7721 274.656 93.3398C273.797 91.8789 273.367 90.1888 273.367 88.2695C273.367 86.3789 273.811 84.6172 274.699 82.9844C275.587 81.3229 276.833 79.8763 278.438 78.6445C280.042 77.4128 281.947 76.4388 284.152 75.7227C286.387 75.0065 288.836 74.6484 291.5 74.6484C294.365 74.6484 296.943 75.0208 299.234 75.7656C301.526 76.5104 303.474 77.5417 305.078 78.8594C306.682 80.1771 307.914 81.724 308.773 83.5C309.661 85.2474 310.105 87.138 310.105 89.1719H302.156C302.156 88.1693 301.898 87.1953 301.383 86.25C300.867 85.276 300.151 84.4167 299.234 83.6719C298.318 82.9271 297.201 82.3255 295.883 81.8672C294.594 81.4089 293.133 81.1797 291.5 81.1797C289.81 81.1797 288.32 81.3659 287.031 81.7383C285.771 82.1107 284.725 82.612 283.895 83.2422C283.035 83.8724 282.391 84.6029 281.961 85.4336C281.531 86.2643 281.316 87.1237 281.316 88.0117C281.316 88.9284 281.488 89.7448 281.832 90.4609C282.176 91.1771 282.777 91.8216 283.637 92.3945C284.467 92.9674 285.585 93.4831 286.988 93.9414C288.421 94.3997 290.225 94.8438 292.402 95.2734C295.267 95.875 297.831 96.5768 300.094 97.3789C302.357 98.1523 304.262 99.0833 305.809 100.172C307.355 101.289 308.53 102.578 309.332 104.039C310.163 105.5 310.578 107.19 310.578 109.109C310.578 111.172 310.105 113.048 309.16 114.738C308.243 116.428 306.954 117.875 305.293 119.078C303.632 120.281 301.641 121.212 299.32 121.871C297 122.53 294.465 122.859 291.715 122.859C288.564 122.859 285.757 122.444 283.293 121.613C280.829 120.754 278.753 119.622 277.062 118.219C275.344 116.844 274.026 115.24 273.109 113.406C272.221 111.573 271.777 109.668 271.777 107.691H279.727C279.841 109.324 280.271 110.699 281.016 111.816C281.789 112.934 282.749 113.836 283.895 114.523C285.012 115.211 286.258 115.698 287.633 115.984C289.008 116.271 290.368 116.414 291.715 116.414C293.835 116.414 295.682 116.171 297.258 115.684C298.833 115.168 300.065 114.466 300.953 113.578C301.497 113.034 301.913 112.432 302.199 111.773C302.486 111.115 302.629 110.413 302.629 109.668ZM325.832 75.5078H349.594V115.125H364.762V122H325.832V115.125H341.645V82.4258H325.832V75.5078ZM340.613 63.3047C340.613 62.6172 340.714 61.9727 340.914 61.3711C341.143 60.7695 341.487 60.2539 341.945 59.8242C342.318 59.4518 342.79 59.1654 343.363 58.9648C343.965 58.7357 344.638 58.6211 345.383 58.6211C346.128 58.6211 346.786 58.7357 347.359 58.9648C347.932 59.1654 348.405 59.4518 348.777 59.8242C349.236 60.2253 349.579 60.7266 349.809 61.3281C350.038 61.9297 350.152 62.5885 350.152 63.3047C350.152 64.5938 349.751 65.668 348.949 66.5273C348.147 67.3867 346.958 67.8164 345.383 67.8164C343.779 67.8164 342.576 67.3867 341.773 66.5273C341 65.668 340.613 64.5938 340.613 63.3047Z" fill="#F3F3F3"/>
<path d="M528.58 204.369C527.713 203.564 527.079 202.307 526.715 201.286C526.601 200.968 527.041 200.851 526.977 200.619C526.854 200.169 526.445 199.961 526.352 199.5C526.322 199.344 526.97 199.093 526.926 198.939C526.685 198.104 526.091 197.584 525.717 196.838C524.928 195.265 524.07 193.764 523.159 192.294C521.776 190.117 520.487 187.915 519.328 185.647C518.656 184.339 518.33 182.515 517.404 181.356C517.295 181.221 516.824 181.59 516.766 181.584C515.869 181.487 516.997 181.073 516.981 180.706C516.913 179.255 516.301 177.959 515.531 177.004C515.203 176.602 514.413 177.606 514.75 176.845C514.772 176.792 515.384 176.607 515.376 176.453C515.361 176.166 515.098 175.798 514.965 175.551C514.935 175.495 514.911 175.445 514.897 175.402C514.75 174.937 514.705 174.871 514.488 174.474C514.195 173.929 514.095 173.133 513.635 172.628C513.536 172.522 513.077 173.008 512.868 172.868C512.659 172.727 512.402 172.183 512.428 171.931C512.455 171.679 512.933 171.497 513.014 171.407C513.702 170.653 512.182 170.744 512.107 170.685C510.778 169.574 510.7 167.972 509.886 166.651C509.267 165.65 508.386 164.71 507.825 163.735C507.264 162.758 506.961 161.792 506.444 160.866C506.33 160.664 506.211 160.463 506.083 160.262C506.001 160.13 505.439 160.667 505.335 160.503C504.234 158.753 503.536 156.949 503.292 155.107C503.268 154.922 503.968 154.871 503.98 154.67C504.052 153.458 504.55 151.344 501.676 152.026C501.486 151.356 501.23 150.59 501.453 149.788C501.593 149.269 502.408 149.247 501.902 148.976C501.788 148.916 501.309 149.351 501.182 149.241C500.965 149.053 500.804 148.826 500.644 148.598C500.328 148.134 500.06 147.664 499.655 147.307C499.516 147.186 499.034 147.485 498.92 147.487C497.985 147.476 498.924 146.266 498.96 146.104C499.186 144.819 498.642 144.256 498.303 143.376C498.225 143.172 497.616 143.696 497.517 143.511C497.009 142.545 496.673 141.519 496.598 140.472C496.583 140.237 497.259 140.174 497.282 140.048C497.374 139.496 496.209 139.886 496.274 139.378C496.286 139.271 496.814 139.093 496.863 139.053C497.627 138.417 496.294 138.76 496.24 138.714C495.514 138.116 496.545 137.006 495.973 136.36C495.904 136.286 495.39 136.811 495.236 136.586C494.767 135.91 494.338 135.215 493.936 134.506C493.255 133.371 492.809 132.109 492.62 130.88C492.566 130.53 493.148 130.553 493.199 130.507C494.009 129.811 492.671 130.119 492.581 130.029C491.919 129.33 492.78 128.248 491.065 128.146C490.717 125.371 489.947 122.995 489.644 120.802C489.585 120.213 489.509 119.553 489.457 118.776C489.452 118.735 490.065 118.454 490.052 118.372C489.881 117.37 489.078 118.069 487.705 118.317C487.365 118.388 488.336 117.108 488.395 117.001C488.635 116.627 489.533 116.163 489.565 116.072C489.795 115.325 487.215 117.38 486.86 116.925C486.853 116.907 487.379 116.594 487.396 116.518C487.45 116.279 487.165 116.307 487.234 116.057C487.394 115.481 488.566 114.38 487.494 114.533C487.356 114.553 485.963 115.807 485.682 115.313C485.573 115.119 484.922 114.339 484.843 114.028C484.766 113.723 485.368 113.522 485.376 113.489C485.559 112.397 485.999 112.434 486.746 111.451C487.505 110.485 485.26 112.167 484.91 112.211C484.559 112.254 484.79 111.406 484.915 111.17C485.037 110.932 485.452 110.874 485.499 110.705C485.821 109.602 484.122 111.116 483.593 111.094C482.674 111.032 483.255 110.197 483.648 109.563C483.803 109.348 483.919 109.142 483.906 108.991C483.892 108.839 483.52 109.153 483.425 109.063C483.058 108.718 483.474 108.131 482.674 107.963C482.539 107.927 481.266 108.256 481.866 107.512C481.951 107.403 482.446 107.207 482.421 106.967C482.384 106.606 482.124 106.067 481.771 105.901C481.512 105.78 481.024 106.539 481.035 106.127C481.038 105.943 481.594 105.835 481.564 105.511C481.536 105.186 481.066 104.669 480.876 104.482C480.687 104.295 480.299 104.833 480.252 104.846C479.98 104.915 479.415 104.756 479.386 104.723C477.824 103.138 477.057 100.867 475.262 99.397C475.121 99.2797 474.691 99.8242 474.664 99.811C474.034 99.5307 475.721 98.6972 475.897 97.9765C475.683 98.18 475.516 98.3243 475.382 98.423C474.884 98.7892 474.834 98.5337 474.523 98.359C474.332 98.2535 474.001 98.6903 473.948 98.7123C473.133 99.0185 473.787 98.1665 473.914 97.9839C474.378 97.3113 473.528 97.7605 473.837 97.3093C474.143 96.8605 474.938 96.5865 474.662 96.2847C474.212 96.5241 473.435 97.6056 473.072 97.509C471.703 97.1488 471.032 94.8263 470.496 94.0432C469.961 93.2612 469.693 93.0895 469.472 92.5561C469.073 91.5919 468.578 92.4936 467.842 92.3094C467.105 92.1227 469.103 90.8186 469.433 90.4213C469.765 90.0257 469.304 90.2925 469.448 90.0291C469.591 89.7663 470.005 89.7198 469.922 89.4592C469.839 89.1991 468.701 89.255 468.236 89.5285C467.252 90.109 466.549 91.1115 466.432 90.3265C466.426 90.281 466.983 89.9771 466.936 89.823C466.545 88.6119 465.787 87.6501 465.374 86.4707C465.317 86.3079 465.946 85.9831 465.919 85.8836C465.649 84.8472 464.963 85.854 463.613 86.2454C465.035 85.2588 465.671 84.3675 465.222 83.7858C464.982 83.4729 464.525 83.8558 464.008 84.0165C463.944 84.0364 463.879 84.0529 463.813 84.0642C463.634 84.0956 463.845 83.5272 463.531 83.7019C462.505 84.2723 461.67 85.3073 461.604 84.3917C461.603 84.3504 462.166 84.0398 462.125 83.9256C461.858 83.1857 460.855 83.8701 460.243 83.3451C459.764 82.9343 459.636 81.6169 459.266 81.004C460.752 79.7546 459.962 79.5205 458.783 80.2084C458.522 79.8309 458.137 79.5211 457.972 79.0762C457.915 78.9235 458.391 78.6096 458.423 78.5542C458.908 77.6817 457.827 78.4365 457.724 78.4042C456.642 78.0054 456.673 76.6807 455.291 76.7808C455.24 76.7838 454.345 77.7912 454.771 76.8702C454.798 76.8053 455.437 76.5315 455.106 76.2058C454.787 75.8878 454.472 74.764 453.589 74.9596C453.522 74.9748 453.386 75.0598 453.24 75.1426C452.911 75.3098 452.518 75.4527 452.619 74.8357C452.64 74.7131 452.878 74.4049 452.932 74.187C453.1 73.4903 452.313 74.608 452.687 73.4858C453.062 72.3642 453.047 71.3513 452.045 71.6996C452.014 71.7086 451.338 72.5661 451.159 72.4453C450.872 72.2509 450.552 71.8153 450.231 71.648C450.077 71.5683 449.853 72.2101 449.821 72.2064C448.63 71.9873 448.19 71.0815 447.179 70.3069C446.991 70.1617 446.025 70.7189 445.921 69.884C445.791 68.9659 447.584 66.1443 446.157 66.4006C445.551 66.4948 443.573 70.201 443.528 67.9026C442.582 67.9018 441.826 67.4671 440.983 67.1799C440.975 67.1776 440.951 67.1749 440.943 67.1731C440.33 66.9947 439.655 66.8383 438.909 67.073C438.83 67.0956 438.45 68.2191 438.293 68.1826C438.057 68.1259 437.991 67.5695 437.818 67.5136C437.101 67.2669 436.389 67.6761 435.69 67.559C435.423 67.5162 435.553 66.9594 435.228 66.9098C435.225 66.9094 435.222 66.909 435.219 66.9087C434.902 66.8749 434.654 67.5888 434.237 67.2167C433.92 66.9309 433.639 65.4041 433.197 65.2145C433.137 66.7089 432.835 66.6687 432.291 67.0512C432.186 67.1255 432.285 67.6483 432.234 67.7103C432.031 67.9741 431.857 67.5391 431.665 67.8275C431.618 67.8967 431.607 68.4073 431.568 68.4927C431.238 69.2387 430.74 68.0823 430.651 67.8811C430.318 67.1167 430.147 67.779 429.888 67.4769C429.626 67.1749 430.026 66.8054 429.719 66.6205C429.083 66.2382 428.258 66.3147 427.608 66.2881C427.349 66.2806 427.523 66.9632 427.486 66.9779C426.949 67.1482 426.41 66.4214 426.109 67.7786C425.746 64.2667 425.785 68.1182 425.022 67.4142C424.962 67.3572 424.887 65.6968 425.119 65.4534C425.351 65.2102 425.701 65.7298 426.025 65.3506C426.101 65.2616 426.543 63.707 426.603 63.613C427.075 62.8781 427.13 65.3596 427.155 65.4959C427.429 66.9677 427.97 65.2944 428.112 65.1795C428.76 64.6528 429.306 65.0064 429.85 64.6335C430.207 64.3927 430.262 62.7681 430.542 62.8215C431.475 62.9992 431.75 65.2715 432.676 63.3269C432.878 62.9128 432.732 61.131 433.383 62.5469C433.427 62.6361 433.891 63.929 434.217 63.1328C434.259 63.0324 434.277 62.5151 434.328 62.4735C434.673 62.2055 434.879 62.6271 435.257 62.4483C435.325 62.4168 435.394 62.3825 435.465 62.3485C435.801 62.19 436.183 62.0389 436.53 62.209C436.783 62.3324 437.042 63.3215 437.141 63.5674C437.424 64.2745 437.909 63.2028 438.038 64.0459C438.16 64.8927 437.619 66.096 438.092 66.6891C438.27 65.3559 438.481 63.9909 438.682 62.6527C439.717 62.8117 440.822 63.3171 441.463 63.4896C441.514 63.5013 441.671 63.5192 441.722 63.534C441.983 63.6054 442.247 63.6706 442.509 63.7223C442.683 63.7557 442.677 63.0097 442.873 63.0292C443.7 63.1189 444.21 63.8113 445.026 63.8712C445.658 63.9156 446.558 63.435 447.228 63.4976C447.014 65.0687 448.041 64.9372 448.579 65.3402C448.765 65.4793 448.579 65.8461 448.667 66.035C448.998 66.7386 449.326 65.3904 449.569 65.2688C450.618 64.7605 449.316 67.5501 450.06 67.8432C450.098 67.8583 451.319 66.6426 451.434 66.588C452.155 66.2148 451.236 67.1292 451.434 67.371C451.794 67.8132 451.92 68.3274 452.684 68.2003C452.906 68.1606 453.78 67.4774 453.69 68.3356C453.678 68.4479 453.389 68.9074 453.404 68.9528C453.707 69.7344 454.568 68.2647 455.183 67.9532C455.799 67.6426 455.702 68.9497 455.628 69.3C455.445 70.2097 455.238 69.5053 455.18 69.5713C454.496 70.3578 454.943 70.4147 455.17 70.6495C454.359 72.1114 454.785 72.2473 455.408 70.887C455.475 70.7379 455.185 70.7473 455.17 70.6495C455.776 69.9299 456.209 69.6405 456.411 69.8121C456.615 69.9728 456.685 70.4131 456.554 71.1221C456.408 71.8882 455.72 72.423 456.586 72.6571C456.977 72.77 457.537 71.7535 458.013 71.7187C459.12 71.6564 459.235 73.1628 459.922 73.5704C460.176 73.7221 460.397 73.0679 460.587 73.1583C461.098 73.4025 461.099 74.0651 461.637 74.2658C461.687 74.2839 462.074 73.7376 462.196 73.8497C463.129 74.6939 463.522 75.7631 464.313 76.7021C464.697 77.1558 465.648 77.7312 465.969 78.2434C466.533 79.1305 466.554 80.7033 467.264 81.2279C467.32 81.2704 467.377 81.2999 467.433 81.3188C467.827 81.4446 468.222 81.0485 468.656 80.9616C469.61 80.7643 468.883 82.3507 468.763 82.5863C468.759 82.5941 468.347 82.3291 468.239 82.7348C467.78 83.2896 468.758 82.5842 468.763 82.5863C468.685 82.7383 469.155 83.5561 469.37 83.619C469.487 83.6532 469.935 83.2145 469.987 83.2397C471.205 83.8469 472.121 84.6991 472.715 85.8565C472.72 85.8817 472.164 86.3065 472.181 86.3602C472.419 87.1232 473.377 86.9305 474.156 87.0626C474.936 87.1949 475.119 87.6699 474.444 88.7251C474.858 88.9757 474.887 89.8216 474.893 90.3209C474.899 90.8194 475.963 89.9701 476.005 89.9777C477.34 90.204 477.147 91.1698 477.771 92.071C478.065 92.5002 478.89 93.1464 479.372 93.4727C479.751 93.727 479.693 94.1327 480.101 94.3108C480.105 94.3123 480.109 94.3139 480.113 94.3154C480.166 94.3346 480.59 93.899 480.618 93.8949C481.425 93.7174 480.188 94.5513 480.045 94.7895C479.529 95.6569 479.284 96.1524 479.987 96.2502C480.151 96.2762 481.961 95.0925 482.206 95.171C482.524 95.2778 481.892 95.7214 482.243 95.8229C482.273 95.8322 482.61 95.5028 482.73 95.6594C483.291 96.3799 483.823 97.3178 484.587 98.0542C484.69 98.1562 485.104 97.5058 485.264 97.6467C486.011 98.3062 486.787 99.1924 487.226 100.264C487.331 100.528 486.82 100.733 486.738 100.877C486.236 101.743 487.615 101.283 487.694 101.343C489.409 102.544 489.449 104.544 490.694 106.326C490.731 106.355 490.774 106.383 490.823 106.41C490.881 106.454 492.315 106.038 491.319 106.819C491.248 106.864 490.251 107.704 491.098 107.397C491.15 107.376 491.643 106.919 491.702 107.136C491.765 107.36 492.333 107.409 491.959 108.129C491.838 108.352 490.983 109.355 492.031 109.04C492.104 109.02 494.285 108.058 493.176 109.226C492.994 109.418 491.643 110.432 492.638 110.292C492.831 110.264 493.013 109.889 493.359 109.946C493.892 110.033 493.883 110.744 494.817 110.718C494.979 110.709 496.148 110.346 495.672 111.16C495.597 111.286 495.084 111.541 495.145 111.728C495.43 112.612 496.328 113.226 496.551 114.355C496.627 114.751 495.745 115.047 495.722 115.498C495.701 115.951 495.841 116.738 496.393 116.963C496.951 117.2 498.084 116.15 498.474 116.786C498.646 117.075 498.799 117.383 498.934 117.705C499.88 119.871 499.548 121.883 499.798 123.447C499.838 123.704 500.296 123.382 500.391 123.743C500.744 125.154 501.718 126.618 501.066 127.756C500.568 128.749 499.576 128.261 499.503 128.922C499.486 129.266 501.099 128.684 501.167 128.696C501.516 128.792 501.603 128.979 501.657 129.197C501.878 129.677 502.012 130.168 502.404 130.572C502.557 130.728 503.03 130.192 503.154 130.332C503.585 130.812 503.643 131.531 503.967 132.014C504.114 132.231 504.552 131.944 504.629 132.176C504.817 132.729 504.844 133.276 504.633 133.97C504.614 134.033 503.888 134.022 504.038 134.392C504.283 134.994 504.16 135.898 504.896 136.349C505.116 136.481 506.22 136.024 505.635 136.759C505.512 136.913 504.144 137.354 505.484 137.353C505.707 137.352 507.581 137.518 506.731 138.295C506.509 138.502 505.521 139.19 505.778 139.335C505.817 139.353 506.366 138.998 506.495 139.152C506.94 139.697 507.129 140.35 507.555 140.842C507.669 140.971 508.186 140.489 508.336 140.688C508.749 141.233 508.899 141.966 508.939 142.491C508.953 142.684 508.41 142.832 508.362 142.871C507.607 143.526 508.821 143.004 508.916 143.015C509.12 143.052 509.202 143.131 509.235 143.225C509.46 143.665 509.492 144.162 509.829 144.539C509.97 144.699 510.443 144.262 510.512 144.271C511.202 144.387 510.062 144.652 510.085 144.95C510.143 145.781 510.554 146.477 510.938 147.089C511.08 147.314 511.605 146.731 511.725 146.938C512.449 148.16 512.924 149.444 513.022 150.678C513.039 150.911 512.471 151.005 512.372 151.098C511.679 151.746 512.977 151.673 513.123 151.718C513.794 151.927 513.413 152.285 513.657 152.601C514.383 153.529 514.884 154.554 515.303 155.413C515.726 156.221 516.107 157.026 516.454 157.741C517.603 160.095 518.225 162.108 519.656 164.199C519.746 164.332 520.298 163.808 520.384 163.918C521.469 165.363 522.132 167.043 523.234 168.526C523.323 168.649 523.826 168.108 523.99 168.294C524.332 168.672 524.612 169.244 524.664 169.797C524.691 170.065 524.001 170.073 524.038 170.336C524.044 170.381 524.051 170.426 524.059 170.47C524.174 171.059 524.421 171.588 524.773 172.024C524.937 172.223 525.392 171.546 525.555 171.833C526.67 173.774 527.687 175.48 527.851 177.684C527.862 177.833 526.645 178.66 527.035 178.779C527.4 178.597 527.815 178.359 528.198 178.153C529.785 180.48 530.814 182.976 532.393 185.175C532.427 185.221 532.461 185.268 532.495 185.314C532.575 185.423 533.048 184.764 533.206 184.973C534.117 186.177 535.179 187.227 535.477 188.923C535.508 189.092 534.361 189.84 534.796 190.079C534.873 190.119 535.421 190.555 535.761 190.517C535.811 190.51 536.251 190.032 536.396 190.198C537.222 191.157 537.881 192.314 538.288 193.537C538.354 193.738 537.679 193.964 537.721 194.11C538.019 195.133 539.067 195.696 539.106 196.766C539.131 197.482 538.069 198.026 537.355 198.989C537.256 199.128 537.466 199.432 536.956 199.87C535.679 200.98 534.114 201.989 532.765 203.188C532.47 203.442 533.205 203.674 532.239 203.979C532.172 203.997 531.635 203.83 531.319 203.943C531.098 204.018 530.651 204.555 530.329 204.602C530.004 204.645 530.349 204.155 529.932 204.155C529.51 204.156 528.958 204.716 528.58 204.369ZM474.932 92.5622C474.671 93.2579 476.511 91.7278 475.828 91.8148C475.793 91.8208 474.944 92.5274 474.932 92.5622ZM440.754 65.2795C440.878 65.8081 441.06 65.7473 441.187 65.4449C441.215 65.4514 441.302 65.4612 441.329 65.4694C441.499 65.1897 441.63 64.6807 441.577 64.2481C441.535 64.2358 441.404 64.2209 441.361 64.2111C441.357 64.1534 441.352 64.0975 441.343 64.0441C441.226 63.2045 440.674 64.9415 440.754 65.2795ZM435.671 65.4533C436.171 66.3186 436.504 62.9406 435.834 63.5847C435.795 63.6212 435.64 65.403 435.671 65.4533ZM536.166 197.97C536.144 197.994 536.288 198.238 536.316 198.224C537.013 197.887 536.73 197.405 536.166 197.97ZM430.801 66.137C430.962 66.5982 431.462 66.0767 431.26 65.5025C431.096 65.0404 430.597 65.563 430.801 66.137ZM484.947 108.46C484.918 108.481 484.98 108.683 485.16 108.592C485.74 108.299 485.44 108.105 484.947 108.46ZM422.661 66.1374C423.862 66.2652 424.587 69.0686 423.281 68.7518C423.045 68.6945 423.792 67.8581 423.49 67.6053C422.939 67.1448 422.573 68.9047 422.01 67.9616C421.909 67.789 422.592 66.1239 422.663 66.1335C422.662 66.1348 422.661 66.1361 422.661 66.1374ZM472.896 94.6009C472.876 94.6267 473.041 94.8623 473.069 94.8467C473.744 94.465 473.413 93.9912 472.896 94.6009ZM490.358 119.057C490.309 119.101 490.506 119.66 490.566 119.653C491.853 119.467 491.394 118.194 490.358 119.057ZM459.298 80.9619C458.521 81.2293 458.224 81.0267 458.783 80.2101C458.944 80.4687 459.137 80.7017 459.298 80.9619Z" fill="white"/>
<defs>
<filter id="filter0_d_0_1" x="362" y="0" width="196" height="196" filterUnits="userSpaceOnUse" color-interpolation-filters="sRGB">
<feFlood flood-opacity="0" result="BackgroundImageFix"/>
<feColorMatrix in="SourceAlpha" type="matrix" values="0 0 0 0 0 0 0 0 0 0 0 0 0 0 0 0 0 0 127 0" result="hardAlpha"/>
<feOffset dy="4"/>
<feGaussianBlur stdDeviation="2"/>
<feComposite in2="hardAlpha" operator="out"/>
<feColorMatrix type="matrix" values="0 0 0 0 0 0 0 0 0 0 0 0 0 0 0 0 0 0 0.25 0"/>
<feBlend mode="normal" in2="BackgroundImageFix" result="effect1_dropShadow_0_1"/>
<feBlend mode="normal" in="SourceGraphic" in2="effect1_dropShadow_0_1" result="shape"/>
</filter>
</defs>
</svg>
